<?xml version="1.0" encoding="UTF-8"?><svg id="Lager_2" xmlns="http://www.w3.org/2000/svg" viewBox="0 0 116.5 147.33"><defs><style>.cls-1{stroke-linecap:round;}.cls-1,.cls-2{fill:none;stroke:#6c3;stroke-miterlimit:10;stroke-width:3px;}</style></defs><g id="NY_växt"><g><path class="cls-2" d="M22.03,106.13s3.75,32.23,10.7,35.89c9.59,5.05,43.29,5.04,49.81,.18,7.27-5.43,12.67-31.52,12.17-36.06"/><path class="cls-1" d="M46.74,104.68h51.98s5.55-.5,5.55-5.05-1.51-7.07-4.54-7.57-77.72,0-80.24,0-5.55,1.51-5.05,5.05-1.01,8.58,3.53,8.58,14.32-.17,14.32-.17"/><path class="cls-2" d="M60.14,90.41c.07-4.93,10.24-19.93,13.19-23.21,3.36-3.74,38.35-27.7,40.84-27.27,2.92,.51-2.66,32.15-4.31,36.15-3.48,8.42-14.84,14.27-15.73,15.73"/><path class="cls-1" d="M70.41,91.04c4.3-2.91,9.07-6.54,13.95-11.03,6.15-5.66,10.96-11.29,14.65-16.23"/><path class="cls-1" d="M34.9,59.65s5.09-27.68,5.9-29.68c1.08-2.66,15.73-28.35,16.99-28.47,1.07-.11,16.11,24.54,17.06,26.89s7.74,30.57,7.74,31.52"/><line class="cls-1" x1="99.08" y1="17.67" x2="82.02" y2="51.15"/><path class="cls-1" d="M77.33,32.19c.13-.32,6.6-6.76,7.93-7.99,1.78-1.65,14.11-10.75,15.47-10.46,1.78,.38,1.69,17.68,1.46,19.85-.25,2.41-1.4,11.79-1.59,13.57"/><path class="cls-1" d="M57.36,4.05c.16,28.46,.32,56.93,.48,85.39"/><path class="cls-1" d="M15.87,47.17c.1-.86-2.78-10.64-3.35-16.2-.47-4.51,1.92-14.85,2.59-16.39,.61-1.4,10.78,4.54,16.01,8.91,2.46,2.06,7.48,8.34,8.63,9.39"/><path class="cls-1" d="M15.96,15.64c6.52,12.43,13.03,24.85,19.55,37.28"/><path class="cls-1" d="M20.18,92.31c-.8,.06-12.09-11.92-13.99-16.68-1.34-3.35-4.08-16.69-4.41-20.51-.38-4.41-.29-14.47-.19-14.76,.1-.29,25.02,14.09,27.98,16.1,2.68,1.82,12.04,8.45,17.73,15.91,2.78,3.64,10.06,17.63,10.16,18.88"/><path class="cls-1" d="M3.6,43.05c3.46,7.67,9.5,18.66,19.84,29.52,8.52,8.95,17.17,14.89,23.77,18.69"/></g></g></svg>